<?xml version="1.0" encoding="utf-8"?>
<!-- Generator: Adobe Illustrator 22.0.0, SVG Export Plug-In . SVG Version: 6.00 Build 0)  -->
<svg version="1.1" id="Camada_1" xmlns="http://www.w3.org/2000/svg" xmlns:xlink="http://www.w3.org/1999/xlink" x="0px" y="0px"
	 width="64px" height="64px" viewBox="0 0 64 64" enable-background="new 0 0 64 64" xml:space="preserve">
<g>
	<g>
		<path fill="#FDFDFD" d="M13.952,48.387c-0.777-0.412-1.574-0.784-2.305-1.287c-0.354-0.244-0.309-0.371-0.074-0.67
			c0.69-0.88,1.543-1.658,1.857-2.786c0.104-0.374,0.282-0.731,0.265-1.137c-0.009-0.212-0.073-0.337-0.305-0.356
			c-0.748-0.06-1.495-0.136-2.243-0.194c-0.553-0.043-1.108-0.067-1.662-0.105c-0.139-0.009-0.333,0.015-0.365-0.157
			c-0.026-0.14,0.151-0.193,0.26-0.258c0.925-0.554,1.854-1.101,2.732-1.728c1.493-1.067,2.708-2.402,3.763-3.892
			c1.058-1.494,1.994-3.068,2.996-4.598c1.392-2.125,3.069-3.988,5.138-5.476c2.939-2.113,6.158-3.588,9.724-4.298
			c1.107-0.22,2.216-0.341,3.336-0.426c0.365-0.028,0.361,0.188,0.362,0.427c0.002,1.099,0.019,2.197-0.006,3.295
			c-0.009,0.407,0.101,0.525,0.5,0.427c0.568-0.141,1.144-0.245,1.717-0.363c0.44-0.091,0.713-0.325,0.82-0.789
			c0.351-1.525,0.726-3.043,1.577-4.39c1.415-2.24,3.087-4.224,5.508-5.439c1.231-0.618,1.979-0.454,3.128,0.699
			c1.424,1.428,2.347,3.177,3.074,5.031c0.657,1.673,1.084,3.404,1.217,5.207c0.15,2.023-0.118,3.942-1.329,5.63
			c-0.927,1.292-2.264,1.95-3.786,2.243c-1.24,0.238-2.492,0.306-3.75,0.112c-0.159-0.024-0.39-0.159-0.492,0.056
			c-0.099,0.208,0.099,0.362,0.234,0.491c0.914,0.865,1.995,1.468,3.137,1.975c1.781,0.791,3.649,1.079,5.587,0.986
			c0.458-0.022,0.917-0.003,1.416-0.003c-0.233,0.69-0.707,1.23-1.151,1.769c-1.755,2.129-4.017,3.617-6.385,4.964
			c-0.139,0.079-0.253,0.201-0.379,0.304c-0.092,0.029-0.191,0.045-0.275,0.089c-4.857,2.539-9.866,4.63-15.358,5.364
			c-1.833,0.245-3.673,0.359-5.514,0.452c-1.701,0.086-3.407,0.011-5.108-0.088c-0.912-0.053-1.831-0.084-2.732-0.222
			c-1.59-0.242-3.181-0.5-4.736-0.932C14.218,48.276,14.052,48.209,13.952,48.387z M22.432,43.02
			c0.675-0.068,1.358-0.135,2.041-0.204c2.164-0.219,4.319-0.476,6.441-0.985c2.539-0.609,4.522-1.964,5.941-4.171
			c0.949-1.477,1.688-3.065,2.523-4.601c0.429-0.79,0.817-1.603,1.213-2.411c0.068-0.138,0.204-0.309,0.099-0.449
			c-0.097-0.129-0.273-0.011-0.415,0.006c-0.39,0.048-0.78,0.09-1.171,0.131c-1.87,0.195-3.737,0.408-5.562,0.887
			c-2.548,0.67-4.787,1.898-6.515,3.895c-1.943,2.245-3.436,4.81-4.918,7.372c-0.085,0.148-0.27,0.313-0.182,0.475
			C22.029,43.159,22.255,42.973,22.432,43.02z M47.256,29.345c0.477,0.017,0.946-0.037,1.416-0.111
			c1.616-0.254,2.603-1.085,2.789-2.449c0.273-2.007,0.07-3.985-0.591-5.896c-0.426-1.231-1.119-2.281-2.333-2.91
			c-0.387-0.201-0.571-0.103-0.684,0.28c-0.274,0.925-0.792,1.715-1.36,2.48c-0.408,0.55-0.809,1.106-1.19,1.676
			c-0.486,0.728-0.676,1.55-0.65,2.416c0.041,1.39,0.424,2.745,0.453,4.136c0.005,0.218,0.09,0.278,0.29,0.286
			C46.016,29.276,46.636,29.313,47.256,29.345z"/>
		<path fill="#FAFAFA" d="M60.968,52.309c0.056-0.711,0.103-1.422,0.171-2.132c0.127-1.321,0.193-2.643,0.179-3.97
			c-0.016-1.523,0.029-3.048-0.111-4.567c-0.274-2.979-0.568-5.956-1.536-8.815c-0.304-0.898-0.652-1.782-1.156-2.585
			c-0.363-0.578-0.423-1.135-0.166-1.761c1.218-2.965,1.023-5.933-0.044-8.883c-0.995-2.75-2.571-5.131-4.63-7.207
			c-1.187-1.197-2.408-2.353-3.732-3.398c-0.219-0.173-0.398-0.196-0.664-0.077c-2.28,1.017-4.444,2.232-6.396,3.794
			c-1.447,1.158-2.809,2.408-3.69,4.08c-0.226,0.429-0.502,0.523-1.007,0.498c-1.767-0.09-3.521,0.108-5.244,0.52
			c-0.568,0.136-0.964,0.02-1.319-0.499c-1.232-1.8-2.867-3.213-4.545-4.576c-1.166-0.947-2.354-1.865-3.623-2.673
			c-0.728-0.464-0.929-0.446-1.546,0.156c-0.669,0.654-1.253,1.384-1.813,2.126c-1.054,1.397-2.044,2.84-2.786,4.436
			c-0.555,1.193-0.873,2.446-1.038,3.751c-0.251,1.981-0.147,3.922,0.465,5.832c0.124,0.386,0.072,0.748-0.206,1.097
			c-1.723,2.164-3.037,4.577-4.199,7.073c-0.363,0.78-0.899,1.33-1.633,1.755c-1.782,1.032-3.545,2.098-5.316,3.15
			c-0.421,0.25-0.836,0.512-1.263,0.752c-0.308,0.173-0.376,0.388-0.282,0.734c0.549,2.014,1.507,3.822,2.722,5.505
			c2.478,3.434,5.705,5.964,9.497,7.784c2.528,1.213,5.163,2.101,7.99,2.296c0.356,0.024,0.562,0.227,0.734,0.501
			c0.374,0.595,0.751,1.188,1.122,1.785c0.059,0.094,0.153,0.223,0.127,0.301c-0.052,0.154-0.226,0.077-0.347,0.082
			c-2.143,0.081-4.21-0.282-6.26-0.914c-2.236-0.689-4.426-1.478-6.545-2.466c-1.685-0.786-3.205-1.819-4.604-3.047
			c-2.889-2.537-4.825-5.729-6.424-9.167c-0.641-1.379-1.219-2.784-1.789-4.192c-0.144-0.356-0.029-0.471,0.278-0.559
			c1.103-0.316,2.179-0.714,3.165-1.301c1.742-1.036,3.473-2.091,5.178-3.185c0.898-0.576,1.369-1.521,1.81-2.457
			c0.845-1.793,1.76-3.541,3.017-5.089c0.253-0.312,0.202-0.671,0.137-1.03c-0.328-1.804-0.575-3.615-0.337-5.451
			c0.294-2.267,1.097-4.358,2.277-6.306c1.47-2.426,3.241-4.625,5.081-6.776c0.551-0.644,1.102-1.295,1.561-2.013
			c0.096-0.151,0.165-0.305,0.402-0.106c2.728,2.298,5.399,4.66,7.964,7.139c0.658,0.636,1.234,1.354,1.96,1.923
			c0.845,0.662,1.799,0.784,2.828,0.651c0.549-0.071,1.107-0.086,1.662-0.106c0.283-0.01,0.48-0.133,0.684-0.321
			c0.943-0.868,1.662-1.936,2.563-2.842c2.071-2.082,4.443-3.735,7.059-5.06c0.962-0.487,1.886-1.048,2.82-1.589
			c0.213-0.123,0.357-0.15,0.545,0.053c1.335,1.441,2.681,2.873,4.025,4.305c0.695,0.74,1.395,1.476,2.092,2.214
			c2.455,2.6,4.197,5.574,4.777,9.151c0.284,1.754,0.275,3.508-0.028,5.263c-0.146,0.846-0.226,1.704-0.333,2.556
			c-0.102,0.808,0.149,1.549,0.451,2.274c0.829,1.99,1.472,4.036,1.777,6.173c0.159,1.111,0.254,2.231,0.349,3.351
			c0.238,2.798,0.171,5.595,0.144,8.395c-0.003,0.286-0.045,0.56-0.243,0.779c-0.885,0.979-1.775,1.955-2.663,2.932
			C61.032,52.341,61,52.325,60.968,52.309z"/>
		<path fill="#999999" d="M13.952,48.387c0.1-0.178,0.266-0.111,0.392-0.076c1.555,0.432,3.146,0.689,4.736,0.932
			c0.901,0.137,1.82,0.169,2.732,0.222c1.701,0.099,3.408,0.174,5.108,0.088c1.841-0.093,3.681-0.207,5.514-0.452
			c5.492-0.735,10.501-2.826,15.358-5.364c0.084-0.044,0.183-0.06,0.275-0.089c0.369,0.648,1.05,0.799,1.667,1.059
			c1.09,0.46,2.171,0.192,3.251-0.034c0.177-0.037,0.341-0.107,0.546,0.003c-0.549,1.132-1.277,2.125-2.251,2.915
			c-2.856,2.318-6.209,3.502-9.747,4.294c-1.972,0.442-3.969,0.696-5.966,0.941c-1.952,0.239-3.925,0.093-5.888,0.13
			c-2.605,0.049-5.177-0.229-7.706-0.819c-1.587-0.37-3.115-0.961-4.609-1.623c-1.049-0.464-2.026-1.052-2.978-1.686
			C14.208,48.709,14.038,48.592,13.952,48.387z"/>
		<path fill="#FAFAFA" d="M19.989,22.521c0.117-2.388,0.686-4.632,2.106-6.604c0.114-0.158,0.245-0.306,0.382-0.445
			c0.843-0.855,0.896-0.901,1.866-0.153c1.33,1.025,2.419,2.287,3.295,3.725c0.161,0.265,0.129,0.449-0.166,0.627
			c-1.934,1.162-3.955,2.16-5.959,3.191c-0.377,0.194-0.758,0.379-1.135,0.572c-0.251,0.128-0.404,0.109-0.391-0.225
			C19.996,22.979,19.989,22.75,19.989,22.521z"/>
		<path fill="#F7F7F7" d="M30.335,38.904c-0.535-0.008-1.022-0.642-0.861-1.115c0.159-0.467,0.418-0.874,0.842-1.171
			c0.956-0.668,2.033-1.022,3.151-1.287c0.248-0.059,0.304-0.009,0.261,0.267c-0.201,1.268-0.976,2.149-1.942,2.883
			C31.362,38.804,30.787,38.747,30.335,38.904z"/>
	</g>
</g>
</svg>
