<?xml version="1.0" encoding="utf-8"?>
<!-- Generator: Adobe Illustrator 22.0.0, SVG Export Plug-In . SVG Version: 6.00 Build 0)  -->
<svg version="1.1" id="Camada_1" xmlns="http://www.w3.org/2000/svg" xmlns:xlink="http://www.w3.org/1999/xlink" x="0px" y="0px"
	 width="64px" height="64px" viewBox="0 0 64 64" enable-background="new 0 0 64 64" xml:space="preserve">
<g>
	<g>
		<path fill="#F6F6F6" d="M64,32.449c-0.15-0.088-0.314-0.049-0.471-0.049c-3.996-0.002-7.993,0.007-11.989-0.014
			c-0.476-0.003-0.537,0.159-0.537,0.575c0.011,8.921,0.004,17.841,0.021,26.762c0.001,0.503-0.099,0.65-0.631,0.648
			c-5.656-0.022-11.311-0.019-16.967-0.003c-0.448,0.001-0.564-0.119-0.553-0.56c0.031-1.248,0.004-2.498,0.016-3.746
			c0.003-0.277-0.072-0.45-0.314-0.612c-0.797-0.535-1.572-1.105-2.358-1.658c-0.097-0.068-0.192-0.197-0.325-0.134
			c-0.141,0.067-0.073,0.222-0.073,0.337c-0.004,1.945-0.014,3.889,0.006,5.834c0.004,0.403-0.077,0.541-0.519,0.54
			c-5.691-0.017-11.383-0.016-17.074-0.001c-0.446,0.001-0.555-0.116-0.554-0.558c0.013-6.476,0.032-12.953-0.007-19.429
			c-0.015-2.496-0.035-4.992-0.031-7.488c0.001-0.411-0.125-0.504-0.514-0.502c-3.515,0.014-7.029,0.009-10.544,0.005
			c-0.189,0-0.387,0.051-0.582-0.046c0.045-0.216,0.23-0.311,0.36-0.441c3.63-3.636,7.261-7.272,10.905-10.895
			c0.301-0.3,0.433-0.591,0.432-1.02c-0.015-4.978-0.009-9.955-0.009-14.933c0-0.193,0-0.387,0-0.681
			c0.481,0.324,0.903,0.599,1.315,0.887c4.577,3.207,9.152,6.416,13.728,9.625c2.375,1.665,4.757,3.322,7.122,5.001
			c0.35,0.249,0.538,0.268,0.869-0.065c5.247-5.275,10.511-10.531,15.773-15.791C50.63,3.9,50.772,3.77,50.921,3.629
			c0.163,0.196,0.086,0.399,0.087,0.582c0.005,6.191,0.007,12.382-0.003,18.573c-0.001,0.357,0.099,0.574,0.403,0.785
			c3.9,2.715,7.787,5.449,11.685,8.166c0.279,0.195,0.485,0.555,0.907,0.501C64,32.306,64,32.378,64,32.449z M13.333,7.512
			c0,0.313,0,0.504,0,0.695c0,4.156-0.007,8.313,0.01,12.469c0.002,0.431-0.132,0.723-0.433,1.021
			c-2.873,2.853-5.733,5.721-8.593,8.588c-0.125,0.125-0.312,0.221-0.328,0.459c2.901,0,5.773,0.015,8.645-0.014
			c0.536-0.005,0.67,0.119,0.669,0.664c-0.005,8.937,0.017,17.874,0.026,26.811c0,0.339,0,0.542,0.462,0.541
			c4.638-0.02,9.276-0.017,13.914-0.003c0.386,0.001,0.467-0.117,0.465-0.481c-0.015-2.426-0.008-4.852-0.008-7.278
			c0-0.17,0-0.341,0-0.538c0.102,0.026,0.158,0.026,0.196,0.052c1.974,1.379,3.943,2.763,5.921,4.136
			c0.208,0.144,0.247,0.315,0.245,0.543c-0.008,0.981,0.02,1.963-0.013,2.943c-0.016,0.468,0.087,0.63,0.6,0.627
			c4.549-0.023,9.098-0.022,13.647-0.001c0.5,0.002,0.606-0.139,0.606-0.618c-0.015-8.937-0.006-17.874-0.022-26.812
			c-0.001-0.48,0.126-0.588,0.592-0.584c2.729,0.023,5.459,0.013,8.188,0.008c0.163,0,0.344,0.06,0.532-0.081
			c-0.168-0.124-0.306-0.23-0.449-0.33c-2.789-1.955-5.574-3.917-8.375-5.853c-0.37-0.256-0.488-0.522-0.486-0.96
			c0.016-5.102,0.011-10.204,0.007-15.306c0-0.186,0.052-0.382-0.049-0.574c-0.21,0.064-0.313,0.239-0.445,0.372
			c-4.657,4.652-9.314,9.304-13.957,13.97c-0.303,0.304-0.487,0.309-0.829,0.068c-5.206-3.664-10.422-7.314-15.637-10.966
			C16.77,9.918,15.108,8.754,13.333,7.512z"/>
		<path fill="#161616" d="M13.333,7.512c1.774,1.242,3.437,2.406,5.099,3.57c5.214,3.653,10.431,7.302,15.637,10.966
			c0.342,0.241,0.526,0.236,0.829-0.068c4.643-4.666,9.301-9.318,13.957-13.97c0.132-0.132,0.235-0.307,0.445-0.372
			c0.101,0.191,0.049,0.388,0.049,0.574c0.004,5.102,0.008,10.204-0.007,15.306c-0.001,0.438,0.116,0.704,0.486,0.96
			c2.802,1.937,5.586,3.899,8.375,5.853c0.143,0.1,0.281,0.206,0.449,0.33c-0.188,0.141-0.369,0.081-0.532,0.081
			c-2.729,0.004-5.459,0.015-8.188-0.008c-0.467-0.004-0.593,0.104-0.592,0.584c0.016,8.937,0.008,17.874,0.022,26.812
			c0.001,0.479-0.106,0.621-0.606,0.618c-4.549-0.021-9.098-0.022-13.647,0.001c-0.514,0.003-0.616-0.159-0.6-0.627
			c0.033-0.98,0.005-1.962,0.013-2.943c0.002-0.228-0.037-0.399-0.245-0.543c-1.977-1.373-3.947-2.757-5.921-4.136
			c-0.038-0.026-0.094-0.026-0.196-0.052c0,0.198,0,0.368,0,0.538c0,2.426-0.007,4.852,0.008,7.278
			c0.002,0.363-0.079,0.482-0.465,0.481c-4.638-0.014-9.276-0.017-13.914,0.003c-0.462,0.002-0.462-0.201-0.462-0.541
			c-0.009-8.937-0.031-17.874-0.026-26.811c0-0.545-0.134-0.67-0.669-0.664c-2.871,0.029-5.743,0.014-8.645,0.014
			c0.016-0.238,0.203-0.334,0.328-0.459c2.86-2.867,5.719-5.735,8.593-8.588c0.301-0.299,0.435-0.591,0.433-1.021
			c-0.016-4.156-0.01-8.313-0.01-12.469C13.333,8.016,13.333,7.825,13.333,7.512z M18.75,30.75c0.015,0.098,0.008,0.143,0.027,0.163
			c1.733,1.891,3.782,3.134,6.439,3.094c1.329-0.02,2.582-0.322,3.659-1.149c0.582-0.447,1.01-1.005,1.131-1.754
			c0.021-0.132,0.101-0.314-0.117-0.339c-0.173-0.02-0.393-0.11-0.478,0.182c-0.232,0.797-0.88,1.075-1.603,1.231
			c-1.275,0.276-2.304-0.173-2.856-1.259c-0.091-0.178-0.202-0.169-0.339-0.169C22.67,30.749,20.728,30.75,18.75,30.75z
			 M32.829,30.75c0.024,0.112,0.02,0.156,0.04,0.177c1.733,1.888,3.783,3.121,6.435,3.081c1.271-0.019,2.473-0.304,3.526-1.055
			c0.627-0.447,1.098-1.016,1.247-1.796c0.026-0.135,0.126-0.347-0.117-0.393c-0.203-0.039-0.42-0.071-0.494,0.241
			c-0.116,0.494-0.492,0.773-0.925,0.968c-0.728,0.328-1.485,0.361-2.242,0.121c-0.577-0.183-1.081-0.478-1.254-1.121
			c-0.045-0.17-0.137-0.225-0.304-0.224C36.786,30.751,34.831,30.75,32.829,30.75z"/>
		<path fill="#EAEAEA" d="M18.75,30.75c1.978,0,3.921,0,5.863,0.001c0.137,0,0.248-0.009,0.339,0.169
			c0.552,1.085,1.58,1.534,2.856,1.259c0.723-0.156,1.371-0.435,1.603-1.231c0.085-0.292,0.306-0.202,0.478-0.182
			c0.218,0.025,0.138,0.208,0.117,0.339c-0.12,0.749-0.549,1.306-1.131,1.754c-1.077,0.828-2.33,1.129-3.659,1.149
			c-2.657,0.04-4.706-1.203-6.439-3.094C18.758,30.892,18.765,30.848,18.75,30.75z"/>
		<path fill="#EAEAEA" d="M32.829,30.75c2.002,0,3.957,0.001,5.911-0.002c0.167,0,0.258,0.055,0.304,0.224
			c0.172,0.643,0.677,0.938,1.254,1.121c0.756,0.24,1.514,0.207,2.242-0.121c0.433-0.195,0.809-0.475,0.925-0.968
			c0.073-0.312,0.29-0.28,0.494-0.241c0.244,0.046,0.143,0.259,0.117,0.393c-0.148,0.78-0.62,1.349-1.247,1.796
			c-1.053,0.751-2.255,1.036-3.526,1.055c-2.652,0.04-4.702-1.193-6.435-3.081C32.849,30.905,32.853,30.862,32.829,30.75z"/>
	</g>
</g>
</svg>
